<?xml version="1.0" encoding="utf-8"?>
<!-- Generator: Adobe Illustrator 18.1.1, SVG Export Plug-In . SVG Version: 6.00 Build 0)  -->
<svg version="1.1" id="Layer_1" xmlns="http://www.w3.org/2000/svg" xmlns:xlink="http://www.w3.org/1999/xlink" x="0px" y="0px"
	 width="256px" height="256px" viewBox="0 0 256 256" style="enable-background:new 0 0 256 256;" xml:space="preserve">
<style type="text/css">
	.st0{stroke:#000000;stroke-width:4.0448;stroke-miterlimit:10;}
	.st1{enable-background:new    ;}
</style>
<g>
	<path class="st0" d="M213.6,108.9c2.8,10.7,4.3,22.1,4.3,33.9c0,1.4,0,2.7-0.1,4.1l13.9,5.4l11.5-9.5l8.8,10.4l-17.2,14.3l-18-7.2
		c-2.1,15.9-6.9,30.6-13.8,43.5l2.5-3.3l13.5,7.7l12.8-7.7l7.1,11.5l-19.2,11.6l-21.1-12.4c-16.5,25.7-42.1,42.2-70.9,42.2
		c-28.7,0-54.2-16.4-70.8-42l-20.8,12.2L17,211.8l7.1-11.5l12.8,7.7l13.5-7.7l1,1.3c-6.3-12.3-10.8-26.2-12.7-41.2l-17.4,7L4,153.2
		l8.8-10.4l11.5,9.5l13.3-5.2c0-1.4-0.1-2.9-0.1-4.3c0-11.8,1.5-23.2,4.4-33.9l-22.5-0.8l-9.8-20l12.3-5.9l6.5,13.4L44,96.3l0.3,4.5
		c9.3-27.6,27.5-49.6,50.3-60.6c0.4-8.5,7.5-15.2,16.1-15.2h37.7c9,0,16.2,7.2,16.2,16.1c0,0.4-0.1,0.8-0.1,1.1
		c21.4,11.8,38.4,33.4,47,60.2l0.4-6l15.6-0.7l6.5-13.4l12.3,5.9l-9.8,20L213.6,108.9z"/>
	<polygon class="st0" points="173.4,10.7 171.6,15.5 168.8,16.7 163.1,18.3 158.3,21.2 151.5,24.9 151.5,21.2 159.1,15.7 
		164.7,14.1 169.6,10.7 172.4,5.1 177.9,3.2 176.4,8.5 	"/>
	<polygon class="st0" points="96.1,18.3 90.4,16.7 87.6,15.5 85.8,10.7 82.8,8.5 81.3,3.2 86.8,5.1 89.6,10.7 94.5,14.1 100.1,15.7 
		107.7,21.2 107.7,24.9 100.9,21.2 	"/>
</g>
<g class="st1">
</g>
<g>
</g>
<g>
</g>
<g>
</g>
<g>
</g>
<g>
</g>
<g>
</g>
<g>
</g>
<g>
</g>
<g>
</g>
<g>
</g>
<g>
</g>
<g>
</g>
<g>
</g>
<g>
</g>
<g>
</g>
</svg>
