<svg xmlns="http://www.w3.org/2000/svg" width="256" height="256" viewBox="0 0 256 256"><style type="text/css">.st0{fill:#512200;stroke:#512200;stroke-miterlimit:10;} .st1{enable-background:new ;}</style><path class="st0" d="M213.6 108.9c2.8 10.7 4.3 22.1 4.3 33.9 0 1.4 0 2.7-.1 4.1l13.9 5.4 11.5-9.5 8.8 10.4-17.2 14.3-18-7.2c-2.1 15.9-6.9 30.6-13.8 43.5l2.5-3.3 13.5 7.7 12.8-7.7 7.1 11.5-19.2 11.6-21.1-12.4c-16.5 25.7-42.1 42.2-70.9 42.2-28.7 0-54.2-16.4-70.8-42l-20.8 12.2-19.1-11.8 7.1-11.5 12.8 7.7 13.5-7.7 1 1.3c-6.3-12.3-10.8-26.2-12.7-41.2l-17.4 7-17.3-14.2 8.8-10.4 11.5 9.5 13.3-5.2-.1-4.3c0-11.8 1.5-23.2 4.4-33.9l-22.5-.8-9.8-20 12.3-5.9 6.5 13.4 15.6.7.3 4.5c9.3-27.6 27.5-49.6 50.3-60.6.4-8.5 7.5-15.2 16.1-15.2h37.7c9 0 16.2 7.2 16.2 16.1 0 .4-.1.8-.1 1.1 21.4 11.8 38.4 33.4 47 60.2l.4-6 15.6-.7 6.5-13.4 12.3 5.9-9.8 20-22.9.7zM173.4 10.7l-1.8 4.8-2.8 1.2-5.7 1.6-4.8 2.9-6.8 3.7v-3.7l7.6-5.5 5.6-1.6 4.9-3.4 2.8-5.6 5.5-1.9-1.5 5.3zM96.1 18.3l-5.7-1.6-2.8-1.2-1.8-4.8-3-2.2-1.5-5.3 5.5 1.9 2.8 5.6 4.9 3.4 5.6 1.6 7.6 5.5v3.7l-6.8-3.7z"/></svg>